# xmcd
#
# Track frame offsets: 
#        150
#        28985
#        61514
#        91511
#        120534
#        140336
#        168099
#
# Disc length: 2573 seconds
#
# Revision: 0
# Processed by: cddbd v1.5.1PL0 Copyright (c) Steve Scherf et al.
# Submitted via: ExactAudioCopy v0.95b2
#
DISCID=4a0a0b07
DTITLE=Clockworkgod - Clockworkgod Vol. 1
DYEAR=2003
DGENRE=Electronic
TTITLE0=Mary From Rome
TTITLE1=Sibiria
TTITLE2=Blowback
TTITLE3=Never Stop Tomorrow
TTITLE4=Nature Boy
TTITLE5=La Beauté
TTITLE6=How I Miss To Miss
EXTD=
EXTT0=
EXTT1=
EXTT2=
EXTT3=
EXTT4=
EXTT5=
EXTT6=
PLAYORDER=
